<?xml version="1.0" encoding="utf-8"?>
<!-- Generator: Adobe Illustrator 24.1.2, SVG Export Plug-In . SVG Version: 6.00 Build 0)  -->
<svg version="1.1" id="Layer_1" xmlns="http://www.w3.org/2000/svg" xmlns:xlink="http://www.w3.org/1999/xlink" x="0px" y="0px"
	 viewBox="0 0 1020 410" style="enable-background:new 0 0 1020 410;" xml:space="preserve">
<g>
	<g>
		<path d="M286.8,324.9c-5.2,3.4-10.8,6.5-16.6,8.9c-11.8,5.9-25.7,10-40.9,11.7l-2.4,0.3l0,21.9l0,35c23.7-1.7,46.3-7.6,66.9-16.9
			L286.8,324.9z"/>
		<path d="M149.2,330.6c-0.3-0.2-0.7-0.3-1-0.5c-2.9-1.3-5.9-3.1-8.9-5.1l-7.1,61.3c20.5,9.1,42.9,14.9,66.4,16.5l0-35.1l0-21.9
			l-1.5-0.2C178.8,343.7,162.3,338.3,149.2,330.6"/>
		<path d="M410.2,205.1C410.2,95.7,321.4,7,211.9,7C102.5,7,13.8,95.8,13.8,205.3c0,78.5,45.7,146.3,111.9,178.4l7.2-62.6
			c-3.9-3-7.3-5.9-9-8c-3.7-4.5-4-7.4-4-7.4l-20.6,0l0-29.3h12l7,3.4l79.6,38.7v-6.9l-78.2-38l-8-3.9l0.1-31.4l24.1,11.7l62,30.2
			v-6.9l-56.7-27.6l-29.4-14.3l0.1-31.5l62.1,30.2l23.9,11.6v-6.9l-14.4-7L112,192.9l0.1-31.5l85.9,41.8v-6.9l-85.8-41.8l0.1-31.5
			l85.7,41.7v-6.9l-85.7-41.7v-0.1H99.1v-2.9l31.7-19.4l67,32.6v-6.9l-60.8-29.6l28.7-17.6L197.9,88v-6.9l-25.8-12.6l32.1-19.6
			l16.4,0l32.1,19.6l-26.4,12.9v6.9l32.7-15.9l28.7,17.5l-61.4,29.9v6.9l67.6-33l31.8,19.4v2.9h-13.1v0l-86.3,42.1v6.9l86.3-42.1
			l0.1,31.5l-86.4,42.1v6.9l86.4-42.1l0.1,31.5l-71.7,34.9l-14.8,7.2v6.9l24.2-11.8l62.4-30.4l0.1,31.5l-29.8,14.5l-56.9,27.7v6.9
			l62.2-30.3l24.5-12l0.1,31.4l-8.6,4.2l-78.2,38.1v6.9l79.6-38.8l7.6-3.7h12l0,29.3l-20.6,0c0,0-1.4,4.8-4,7.5s-3.6,4.1-5.7,5.8
			c-1,0.8-2.1,1.6-3.2,2.3l7.2,62.1C365,350.9,410.2,283.3,410.2,205.1"/>
	</g>
	<g>
		<path d="M510.9,56.3v50.1h-10.8l-18.4-34.2v34.2h-9.4V56.3h10.8l18.4,34.2V56.3H510.9z"/>
		<path d="M565.7,56.1c5.8,0,9.9,4,9.9,9.9v30.9c0,5.8-4,9.9-9.9,9.9h-16.8c-5.8,0-9.9-4-9.9-9.9V65.9c0-5.8,4-9.9,9.9-9.9
			C548.9,56.1,565.7,56.1,565.7,56.1z M565.5,67.9c0-1.5-0.8-2.4-2.4-2.4h-11.8c-1.5,0-2.4,0.8-2.4,2.4v27c0,1.5,0.8,2.4,2.4,2.4
			h11.8c1.5,0,2.4-0.8,2.4-2.4V67.9z"/>
		<path d="M629.8,106.4l-8.1-18.6h-8.1v18.6h-10V56.3h25.5c5.8,0,9.9,4,9.9,9.9V78c0,4.7-2.6,8.3-6.8,9.5l8.3,19H629.8z M629,68.2
			c0-1.5-0.8-2.4-2.4-2.4h-13v12.7h13c1.5,0,2.4-0.8,2.4-2.4V68.2z"/>
		<path d="M685.8,65.7v40.8h-10V65.7h-13.1v-9.3h36.2v9.3H685.8z"/>
		<path d="M724.4,56.3h10v19.8h17.3V56.3h10v50.1h-10V85.6h-17.3v20.9h-10V56.3z"/>
		<path d="M497.6,138.8c5.8,0,9.9,4,9.9,9.9v7.1c0,3-1.2,5.6-4.4,7.5c3.5,1.7,4.9,4.5,4.9,7.5v8.2c0,5.8-4,9.9-9.9,9.9h-25.9v-50.1
			L497.6,138.8L497.6,138.8z M495.1,158.8c1.8,0,2.4-0.4,2.4-2.4v-6c0-1.5-0.8-2.4-2.4-2.4h-12.8v10.7L495.1,158.8L495.1,158.8z
			 M495.6,179.6c1.5,0,2.4-0.8,2.4-2.4v-7.2c0-2.1-1.2-2.2-3.2-2.2h-12.5v11.8L495.6,179.6L495.6,179.6z"/>
		<path d="M561.9,188.9l-8.1-18.6h-8.1v18.6h-10v-50.1h25.5c5.8,0,9.9,4,9.9,9.9v11.8c0,4.7-2.6,8.3-6.8,9.5l8.3,19H561.9z
			 M561.1,150.6c0-1.5-0.8-2.4-2.4-2.4h-13V161h13c1.5,0,2.4-0.8,2.4-2.4V150.6z"/>
		<path d="M624.7,138.5c5.8,0,9.9,4,9.9,9.9v30.9c0,5.8-4,9.9-9.9,9.9h-16.8c-5.8,0-9.9-4-9.9-9.9v-30.9c0-5.8,4-9.9,9.9-9.9H624.7z
			 M624.6,150.3c0-1.5-0.8-2.4-2.4-2.4h-11.8c-1.5,0-2.4,0.8-2.4,2.4v27c0,1.5,0.8,2.4,2.4,2.4h11.8c1.5,0,2.4-0.8,2.4-2.4V150.3z"
			/>
		<path d="M688.2,138.5c5.8,0,9.9,4,9.9,9.9v30.9c0,5.8-4,9.9-9.9,9.9h-16.8c-5.8,0-9.9-4-9.9-9.9v-30.9c0-5.8,4-9.9,9.9-9.9H688.2z
			 M688,150.3c0-1.5-0.8-2.4-2.4-2.4h-11.8c-1.5,0-2.4,0.8-2.4,2.4v27c0,1.5,0.8,2.4,2.4,2.4h11.8c1.5,0,2.4-0.8,2.4-2.4V150.3z"/>
		<path d="M736,176.1v12.8h-9.9v-50.1h9.9v23.5l17.3-23.5h11.8l-15.4,19.8l16.1,30.3h-11.3l-11.5-21.8L736,176.1z"/>
		<path d="M800.8,138.8v40.6h21v9.5h-31v-50.1L800.8,138.8L800.8,138.8z"/>
		<path d="M851.5,188.9v-17.3L836,138.8h11l9.5,21.4l9.5-21.4h11l-15.5,32.8v17.3H851.5z"/>
		<path d="M939.8,138.8v50.1H929l-18.4-34.2v34.2h-9.4v-50.1h10.8l18.4,34.2v-34.2L939.8,138.8L939.8,138.8z"/>
		<path d="M497.9,221.2c5.8,0,9.9,4,9.9,9.9v12.7c0,5.8-4,9.9-9.9,9.9h-15.6v17.7h-10v-50.1L497.9,221.2L497.9,221.2z M495.4,244.2
			c1.5,0,2.4-0.8,2.4-2.4V233c0-1.5-0.8-2.4-2.4-2.4h-13.1v13.5L495.4,244.2L495.4,244.2z"/>
		<path d="M537,271.3h-10.4l16.1-50.1h11.7l16.1,50.1h-10.8l-3.3-11.3h-16.2L537,271.3z M543.1,250.6h10.7l-5.3-18.4L543.1,250.6z"
			/>
		<path d="M621.7,271.3l-8.1-18.6h-8.1v18.6h-10v-50.1H621c5.8,0,9.9,4,9.9,9.9v11.8c0,4.7-2.6,8.3-6.8,9.5l8.3,19H621.7z
			 M620.9,233.1c0-1.5-0.8-2.4-2.4-2.4h-13v12.7h13c1.5,0,2.4-0.8,2.4-2.4V233.1z"/>
		<path d="M668.9,258.5v12.8H659v-50.1h9.9v23.5l17.3-23.5H698L682.6,241l16.1,30.3h-11.3l-11.5-21.8L668.9,258.5z"/>
		<path d="M745.6,232.8c0-1.5-0.8-2.4-2.4-2.4h-10c-1.5,0-2.4,0.8-2.4,2.4v4.7c0,1.5,0.8,2,2.4,2.4l12.9,2.8c5.4,1.2,10,4.4,10,10v9
			c0,5.9-4,9.9-9.9,9.9h-15.6c-5.8,0-9.9-4-9.9-9.9v-6.4h9.7v4.5c0,1.5,0.8,2.4,2.4,2.4h10.8c1.5,0,2.4-0.8,2.4-2.4v-5.3
			c0-1.5-0.8-2-2.4-2.4l-12.9-2.8c-5.4-1.2-10-4.4-10-10v-8.5c0-5.9,4-9.9,9.9-9.9h14.8c5.8,0,9.9,4,9.9,9.9v5.8h-9.7L745.6,232.8
			L745.6,232.8z"/>
		<path d="M478.3,353.8h-10.4l16.1-50.1h11.7l16.1,50.1h-10.8l-3.3-11.3h-16.2L478.3,353.8z M484.4,333h10.7l-5.3-18.4L484.4,333z"
			/>
		<path d="M546.8,303.7v40.6h21v9.5h-31v-50.1L546.8,303.7L546.8,303.7z"/>
		<path d="M603.7,303.7v40.6h21v9.5h-31v-50.1L603.7,303.7L603.7,303.7z"/>
		<path d="M650.6,303.7h10v50.1h-10V303.7z"/>
		<path d="M695.9,353.8h-10.4l16.1-50.1h11.7l16.1,50.1h-10.8l-3.3-11.3h-16.2L695.9,353.8z M702,333h10.7l-5.3-18.4L702,333z"/>
		<path d="M793,303.7v50.1h-10.8l-18.4-34.2v34.2h-9.4v-50.1h10.8l18.4,34.2v-34.2H793z"/>
		<path d="M846.7,315.2c0-1.5-0.8-2.4-2.4-2.4h-10.8c-1.5,0-2.4,0.8-2.4,2.4v27c0,1.5,0.8,2.4,2.4,2.4h10.8c1.5,0,2.4-0.8,2.4-2.4
			v-6.1h10v8.1c0,5.9-4,9.9-9.9,9.9H831c-5.8,0-9.9-4-9.9-9.9v-30.9c0-5.9,4-9.9,9.9-9.9h15.9c5.8,0,9.9,4,9.9,9.9v8.1h-10V315.2z"
			/>
		<path d="M916.7,303.7v9.5H894v10.3h18.4v9.5H894v11.4h22.8v9.5H884v-50.1L916.7,303.7L916.7,303.7z"/>
	</g>
</g>
</svg>
